<?xml version="1.0" encoding="UTF-8"?>
<svg id="Capa_2" data-name="Capa 2" xmlns="http://www.w3.org/2000/svg" viewBox="0 0 20 22.19">
  <defs>
    <style>
      .cls-1 {
        fill: #ff9000;
      }
    </style>
  </defs>
  <g id="Capa_1-2" data-name="Capa 1">
    <g>
      <path class="cls-1" d="M1.88,10.44c.06.43.49.82.89.87.52.07,1.07.04,1.6.15.15.03.54.13.32.35-.08.08-.73.17-.89.19-.44.05-1.07.12-1.49-.02-.17-.06-.32-.18-.49-.25.08.72.32,1.35.79,1.88.78.87,1.78,1.68,2.6,2.53.91.94,1.36,1.62,1.43,3.03.03.59-.07,1.36,0,1.92.02.14.11.19.24.19l6.55.02c.07-.02.14-.14.16-.21.05-.28,0-.78.03-1.09.01-.18.13-1.23.21-1.29.05-.04.15-.04.2-.02.03.02.04.05.06.08.08.16.15.84.17,1.05.04.41.1,1.35-.05,1.69-.44,1.03-2,.44-2.83.65-1.47-.1-3.08.12-4.54,0s-.96-2.2-1.05-3.3c-.08-.99-.61-1.53-1.23-2.18-1.24-1.28-3.29-2.72-3.43-4.67-.05-.64.11-1.24-.07-1.88V2.95C.39,2.87.06,2.52.01,1.78-.04.95.05.1.99.02c.63-.05,1.3.03,1.93.04.72.01,1.48-.03,2.19.03.38.03.86.19,1.19.2.1,0,.16-.04.28-.02.57.07.65.64.67,1.14.04.81-.11,1.45-1,1.49l-.1,5.99.46-.1c3.14-.01,6.29,0,9.43.04.89,0,1.96-.08,2.83,0,1.13.11,1.2,1.19,1.08,2.16-.07.54-.55.91-1.04.91-.04,0-.13-.06-.14.02,0,0,.03.06.03.1.03,1.07-.55,2.36-1.15,3.2-1.96,2.74-5.78,3.35-8.45,1.4-1.35-.99-2.47-2.72-2.5-4.51-.54.02-1.09-.37-1.23-.93-.08-.31-.09-1.12,0-1.43.03-.13.15-.28.15-.39s-.08-.37-.09-.52c-.06-.64-.06-1.31-.07-1.94-.02-1.32.05-2.64-.03-3.95H1.88v7.51ZM6.31.64c-.56.15-1.14.19-1.71.23l-3.66.04c-.05.02-.08.06-.09.11-.02.1-.02.84,0,.92,0,.03.03.06.06.08,1.62.06,3.25-.02,4.88.02.18,0,.68.15.72-.12-.03-.4.22-1.05-.2-1.27ZM7.22,12.1c.43,1.45,1.08,2.71,2.24,3.62,2.97,2.32,7.04,1.01,8.42-2.56.13-.35.41-1.53.68-1.67.25-.13.66-.07.72-.54.02-.19.02-.77,0-.96-.04-.26-.27-.38-.5-.4-.14,0-.24.04-.35.04-3.97.05-7.93.02-11.9.03-.12.02-.24.17-.27.3-.03.14-.03.83,0,.97.03.14.16.24.29.27,2.65-.01,5.3.01,7.94.07.94.02,1.86,0,2.8.14.11.02.43.04.47.16.04.13,0,.21-.11.25-.15.05-.5.08-.67.11-1.97.23-4.27.16-6.27.17-1.16.01-2.33-.01-3.49,0Z"/>
      <path class="cls-1" d="M13.07,2.12c.45-.11.37.46.41.74.14,1,.74,1.57,1.52,2.05.08.08.06.19-.01.27-.09.09-.38.22-.52.33-.56.45-.88.99-.99,1.73-.04.25.04.7-.31.72s-.3-.51-.34-.75c-.13-.89-.58-1.44-1.32-1.83-.17-.09-.36-.08-.36-.36,0-.26.23-.27.39-.36.72-.39,1.17-.93,1.3-1.8.03-.21-.02-.68.24-.74Z"/>
      <path class="cls-1" d="M18.67,2.91c.21.23-.36.52-.51.66-.29.28-.51.62-.6,1.04-.05.27.02.78-.32.82-.47.06-.37-.58-.46-.92-.11-.44-.43-.84-.81-1.05-.14-.08-.34-.08-.41-.25-.21-.46.33-.53.6-.72s.54-.57.63-.9c.06-.22.05-.73.19-.86.16-.16.41-.09.51.11.06.28.04.55.13.82.16.55.55.84.94,1.19.03.03.1.04.12.06Z"/>
    </g>
  </g>
</svg>